<?xml version="1.0" encoding="UTF-8" standalone="no"?>
<svg
   width="150"
   height="150"
   viewBox="0 0 150 150"
   version="1.1"
   xmlns="http://www.w3.org/2000/svg">
  <g>
    <rect
       style="fill:#ff6e64"
       width="150"
       height="150"
       x="0"
       y="0" />
    <path
       style="fill:#26100f;stroke-width:1.33333"
       d="m 51.424074,96.535191 q -6.283335,0 -11.27778,-2.846299 -4.940742,-2.846296 -7.840742,-7.679629 -2.846297,-4.887039 -2.846297,-10.955558 v -0.107413 q 0,-6.068518 2.846297,-10.901853 2.9,-4.887038 7.840742,-7.733334 4.994445,-2.846297 11.27778,-2.846297 6.283333,0 11.546297,3.168519 5.262964,3.16852 11.385187,10.848149 l 0.644444,0.805556 0.644445,-0.805556 q 6.122223,-7.679629 11.385187,-10.848149 5.262961,-3.168518 11.546301,-3.168518 6.283335,0 11.224075,2.846297 4.99445,2.846296 7.84074,7.733334 2.9,4.833334 2.9,10.901853 v 0.107413 q 0,6.068519 -2.9,10.955558 -2.84629,4.833332 -7.84074,7.679629 -4.94074,2.846299 -11.224075,2.846299 -6.28334,0 -11.546301,-3.16852 -5.262964,-3.222224 -11.385187,-10.84815 l -0.644445,-0.805556 -0.644444,0.805556 q -6.122223,7.625927 -11.385187,10.84815 -5.262964,3.16852 -11.546297,3.168519 z m 0.322221,-8.53889 q 2.953704,0 5.531483,-1.12778 2.577778,-1.181481 5.37037,-3.812963 2.792594,-2.685185 6.444446,-7.25 l 0.644445,-0.805557 -0.644445,-0.805556 q -3.651852,-4.564813 -6.444446,-7.196297 -2.792592,-2.685185 -5.37037,-3.812962 -2.577779,-1.181482 -5.531483,-1.181482 -3.812963,0 -6.766667,1.718519 -2.953704,1.664815 -4.672222,4.564814 -1.664816,2.900001 -1.664816,6.65926 v 0.107415 q 0,3.705556 1.664816,6.65926 1.718518,2.9 4.672222,4.618518 2.953704,1.664816 6.766667,1.664816 z m 46.50741,0 q 3.812975,0 6.766675,-1.664816 2.95371,-1.718519 4.61852,-4.61852 1.71852,-2.953704 1.71852,-6.65926 v -0.107413 q 0,-3.75926 -1.71852,-6.65926 -1.66481,-2.9 -4.61852,-4.564815 -2.9537,-1.718518 -6.766675,-1.718518 -2.9537,0 -5.53148,1.181482 -2.57778,1.127776 -5.37037,3.812962 -2.792592,2.631483 -6.444445,7.196297 l -0.644444,0.805556 0.644444,0.805556 q 3.651853,4.564815 6.444445,7.25 2.79259,2.631483 5.37037,3.812964 2.57778,1.127779 5.53148,1.127779 z" />
  </g>
</svg>
