<?xml version="1.0" encoding="UTF-8" standalone="no"?>
<svg
   width="112.5"
   height="150"
   viewBox="0 0 112.5 150"
   version="1.1"
   xmlns="http://www.w3.org/2000/svg">
  <g>
    <rect
       style="fill:#ff6e64;"
       id="rect1"
       width="112.5"
       height="150"
       x="0"
       y="0"
       rx="6"
       ry="6" />
    <path
       style="fill:#26100f"
       d="m 38.568053,91.151394 q -4.712501,0 -8.458335,-2.134723 -3.705556,-2.134722 -5.880556,-5.759722 -2.134723,-3.665279 -2.134723,-8.216668 v -0.08056 q 0,-4.551389 2.134723,-8.17639 2.175,-3.665278 5.880556,-5.8 3.745834,-2.134723 8.458335,-2.134723 4.7125,0 8.659723,2.376389 3.947223,2.37639 8.53889,8.136112 l 0.483333,0.604167 0.483334,-0.604167 q 4.591667,-5.759722 8.53889,-8.136112 3.947222,-2.376389 8.659723,-2.376389 4.712501,0 8.418057,2.134723 3.745833,2.134722 5.880556,5.8 2.175,3.625001 2.175,8.17639 v 0.08056 q 0,4.551389 -2.175,8.216668 -2.134723,3.625 -5.880556,5.759722 -3.705556,2.134723 -8.418057,2.134723 -4.712501,0 -8.659723,-2.376389 -3.947223,-2.416667 -8.53889,-8.136112 l -0.483334,-0.604167 -0.483333,0.604167 q -4.591667,5.719445 -8.53889,8.136112 -3.947223,2.376389 -8.659723,2.376389 z m 0.241666,-6.404167 q 2.215278,0 4.148612,-0.845834 1.933334,-0.886111 4.027778,-2.859723 2.094445,-2.013889 4.833334,-5.4375 l 0.483334,-0.604167 -0.483334,-0.604167 q -2.738889,-3.423611 -4.833334,-5.397223 -2.094444,-2.013889 -4.027778,-2.859722 -1.933334,-0.886111 -4.148612,-0.886111 -2.859722,0 -5.075,1.288889 -2.215278,1.248611 -3.504167,3.423611 -1.248612,2.175 -1.248612,4.994445 v 0.08056 q 0,2.779167 1.248612,4.994445 1.288889,2.175 3.504167,3.463889 2.215278,1.248612 5.075,1.248612 z m 34.88056,0 q 2.859723,0 5.075001,-1.248612 2.215278,-1.288889 3.463889,-3.463889 1.288889,-2.215278 1.288889,-4.994445 v -0.08056 q 0,-2.819445 -1.288889,-4.994445 -1.248611,-2.175 -3.463889,-3.423611 -2.215278,-1.288889 -5.075001,-1.288889 -2.215278,0 -4.148611,0.886111 -1.933334,0.845833 -4.027779,2.859722 -2.094444,1.973612 -4.833334,5.397223 l -0.483333,0.604167 0.483333,0.604167 q 2.73889,3.423611 4.833334,5.4375 2.094445,1.973612 4.027779,2.859723 1.933333,0.845834 4.148611,0.845834 z" />
  </g>
</svg>
